<svg id="e333f738-44b9-4d35-9e32-552224044ab6" data-name="Layer 1" xmlns="http://www.w3.org/2000/svg" width="865.76" height="682.89" viewBox="0 0 865.76 682.89"><path d="M531.7,609H498.22a1.65,1.65,0,0,0-1.63,1.85c.83,6.29,6,26.34,38.09,22.57a27.36,27.36,0,0,0,7.32-2c8.66-3.64,33.1-13.23,50.64-13.48,0,0,18.32,2.92,24.32-11.69L555.91,611Z" fill="#0071f2"/><path d="M531.7,609,543,607.84l17.15,4.52S538.81,617.92,531.7,609Z" fill="#f9b499"/><path d="M625.37,343l-60.31-71.82-19.55-1L485.21,351l-12.78,42.24c-7.94,31.23,13.24,72,13.24,72l40.93,93a7.39,7.39,0,0,0,6.76,4.4h2.06l-9,31.77a81.47,81.47,0,0,0,7.54,7.12v0c41.21,34,91.4,0,91.4,0L617,493.35C614.31,451.62,625.37,343,625.37,343Zm-69.3,113c0,.26-.05.49-.07.68s0,.29,0,.47a1.09,1.09,0,0,1,0,.25L523,414.17a5.5,5.5,0,0,1-.69-5.47l20.12-47.8c3.74-7,6.92-9.5,9.26-10.11a4.38,4.38,0,0,1,4.24,1.06C565.68,363.57,557.35,444.24,556.07,455.94Z" fill="#2f2e41"/><path d="M475.1,119.82,514,147.61a1.33,1.33,0,0,0,1.87-.31h0a1.35,1.35,0,0,0-.25-1.8L479,115.57Z" fill="#e6e7e8"/><path d="M555.91,457.34c-1,9.53-7.18,63.15-20.49,105.25h-2.06a7.39,7.39,0,0,1-6.76-4.4s29.52-53.29,13.62-103.59L522.73,426l-16.42,13.24,6.89-21.17H498.42s16.36-10.6,20.07-22.77c0,0,24.58-45.24,25.12-73.16,0,0,1.79,11.44,8,14.4v12.77l0,1.47c-2.34.61-5.52,3.06-9.26,10.11L522.3,408.7a5.5,5.5,0,0,0,.69,5.47Z" opacity="0.2"/><path d="M553.74,140.44h6.35l21.79,18.12-9.71,73.6-7.11,39-19.55-1,2-73.38S544,159,553.74,140.44Z" fill="#0071f2"/><polygon points="473.32 121.74 480.71 113.74 466.69 101.84 459.93 110.56 473.32 121.74" fill="#2f2e41"/><rect x="370.58" y="289.88" width="92.13" height="4.36" fill="#bcbec0"/><path d="M275.36,599.71l-3.9,32.52,119.77,1s-33.64-25.38-53.05-30.94Z" fill="#0071f2"/><path d="M275.36,599.71l-3.9,32.52,119.77,1s-33.64-25.38-53.05-30.94Z" opacity="0.2"/><polygon points="271.87 641.7 271.46 632.23 391.23 633.21 391.5 639.62 271.87 641.7" fill="#2f2e41"/><path d="M185.33,601.47,180,633.8l119.61,6.13s-32.52-26.8-51.67-33.2Z" fill="#0071f2"/><path d="M187.77,579.66,197,365.41l54.09-87.63s30.17,3.27,43.53-1.69L317,276l18.88,311.6H276.53l-1.86-201.8L247.73,585.5Z" fill="#2f2e41"/><path d="M412.16,120.94l-24.45,65a40.06,40.06,0,0,1-3.44,6.69c-4.15,6.46-12,14.8-23.88,11.24-.51-.15-1-.33-1.58-.53l-36.3-11.85s-.73,53.64,7.15,108.59c.08.59.17,1.2.26,1.81,8.15,55.56,7.79,67.79,7.79,67.79s-40.14,7-43-45.56v-48l-2.75-53V136.79l4.93-13.33s7.91.08,20.2,5.21a102.34,102.34,0,0,1,15.47,8.12l21.5,11,27.78-36.68A31,31,0,0,0,412.16,120.94Z" fill="#0071f2"/><path d="M412.16,120.94l-24.45,65a40.06,40.06,0,0,1-3.44,6.69c-4.15,6.46-12,14.8-23.88,11.24-.51-.15-1-.33-1.58-.53l-36.3-11.85s-.73,53.64,7.15,108.59c.08.59.17,1.2.26,1.81,8.15,55.56,7.79,67.79,7.79,67.79s-40.14,7-43-45.56v-48l-2.75-53V136.79l4.93-13.33s7.91.08,20.2,5.21a102.34,102.34,0,0,1,15.47,8.12l21.5,11,27.78-36.68A31,31,0,0,0,412.16,120.94Z" fill="#fff" opacity="0.7"/><path d="M326.3,271.94l-21.23,2.12S302,322.87,333,323.35Z" fill="#0071f2"/><path d="M326.3,271.94l-21.23,2.12S302,322.87,333,323.35Z" fill="#fff" opacity="0.4"/><path d="M197,365.41l-.86,17.06s43.5,5.9,57.84-59.12c0,0,6.78-31.7,7.12-44.47l-14.61-12.76L196.18,352.8Z" opacity="0.2"/><path d="M242,119.59s-4.44,0-5.89,1.34c0,0,12.58,22.36,12.82,47l2.18,109.81s26.12,3.38,43.53-1.7L289.34,174s-5.56-44.5-7.49-50.55l-5.47,0-17.17.69Z" fill="#0071f2"/><path d="M242,119.59s-4.44,0-5.89,1.34c0,0,12.58,22.36,12.82,47l2.18,109.81s26.12,3.38,43.53-1.7L289.34,174s-5.56-44.5-7.49-50.55l-5.47,0-17.17.69Z" fill="#fff" opacity="0.5"/><path d="M276.38,123.5c-3.17,11.73-8.93,13.32-11.95,13.29a5.28,5.28,0,0,1-2.91-.92l-3.27-2.19h0L242.31,123a.63.63,0,0,1-.27-.69l4.73-21.82,9.2-4.35,15,16.21a12.67,12.67,0,0,0,5.17,10.36A.72.72,0,0,1,276.38,123.5Z" fill="#f9b499"/><path d="M258.24,133.67,242.31,123a.63.63,0,0,1-.27-.69l4.73-21.82v21.29Z" fill="#f7a48b"/><path d="M256.41,104.37s-.25,18.35,17.67,16.42a6.7,6.7,0,0,1-2.7-4.91S262.43,114.56,256.41,104.37Z" fill="#f7a48b"/><path d="M236.13,120.93s-13.06,3-16.45,4.95c0,0,22.57,38.93,29.79,68.2L249,168A101.77,101.77,0,0,0,236.13,120.93Z" fill="#0071f2"/><path d="M236.13,120.93s-13.06,3-16.45,4.95c0,0,22.57,38.93,29.79,68.2L249,168A101.77,101.77,0,0,0,236.13,120.93Z" fill="#fff" opacity="0.4"/><path d="M364.38,151l12.21,12-16.66-5.43-13,15.78v-20L317,128.67a102.34,102.34,0,0,1,15.47,8.12l21.5,11,27.78-36.68Z" fill="#fff" opacity="0.7"/><path d="M281.85,123.46h15s6.57,64.35-4.94,99.66L289.34,174S285,139.67,281.85,123.46Z" fill="#0071f2"/><path d="M281.85,123.46h15s6.57,64.35-4.94,99.66L289.34,174S285,139.67,281.85,123.46Z" fill="#fff" opacity="0.4"/><path d="M384.27,192.61c-4.15,6.46-12,14.8-23.88,11.24,1.05-6.31,10.73-11.27,22.5-11.27Q383.58,192.58,384.27,192.61Z" fill="#fff" opacity="0.7"/><path d="M219.68,125.88s-32.58,7.06-37.07,25.31c0,0-14.73,52.53-11.53,94.8,0,0,3,33.95,24.08,21.78l-5.5,107s42.57,11.59,58.32-54.47a94.42,94.42,0,0,0,2.45-19.08l.7-23.41-1.66-83.7S243.3,167.18,219.68,125.88Z" fill="#0071f2"/><path d="M219.68,125.88s-32.58,7.06-37.07,25.31c0,0-14.73,52.53-11.53,94.8,0,0,3,33.95,24.08,21.78l-5.5,107s42.57,11.59,58.32-54.47a94.42,94.42,0,0,0,2.45-19.08l.7-23.41-1.66-83.7S243.3,167.18,219.68,125.88Z" fill="#fff" opacity="0.7"/><path d="M425.35,133.43a22.35,22.35,0,0,1-44.7,0,21.56,21.56,0,0,1,.29-3.53,22.31,22.31,0,0,1,10.46-15.55l-9.35-29.88-.28.09a1.9,1.9,0,0,1-2.38-1.25l-.46-1.45a1.92,1.92,0,0,1,1.25-2.39l12.49-3.91a1.9,1.9,0,0,1,2.38,1.24l.46,1.47a1.91,1.91,0,0,1-1.25,2.38l-.34.11,9.5,30.35a22.23,22.23,0,0,1,13.06,4.51h0A22.27,22.27,0,0,1,425.35,133.43Z" fill="#e6e7e8"/><path d="M425.35,133.43a22.35,22.35,0,0,1-44.7,0,21.56,21.56,0,0,1,.29-3.53s9.1,3.6,23.64-8.16c0,0,6.3-6.84,11.9-6.12h0A22.27,22.27,0,0,1,425.35,133.43Z" fill="#2f2e41"/><path d="M380.94,129.9s.2-8.5,8.95-7.9c0,0,10.24.82,14.69-.26C404.58,121.74,392,133,380.94,129.9Z" fill="#2f2e41"/><path d="M380.94,129.9s.2-8.5,8.95-7.9c0,0,10.24.82,14.69-.26C404.58,121.74,392,133,380.94,129.9Z" opacity="0.2"/><path d="M225.2,231.71a22.35,22.35,0,1,0,42.65-13.37,21.15,21.15,0,0,0-1.33-3.29,22.31,22.31,0,0,0-14.63-11.71V172h.29a1.92,1.92,0,0,0,1.9-1.91v-1.52a1.9,1.9,0,0,0-1.9-1.9h-13.1a1.91,1.91,0,0,0-1.9,1.9v1.54a1.91,1.91,0,0,0,1.9,1.9h.36v31.79a22.32,22.32,0,0,0-11.11,8.22h0A22.28,22.28,0,0,0,225.2,231.71Z" fill="#e6e7e8"/><path d="M225.2,231.71a22.35,22.35,0,1,0,42.65-13.37,21.15,21.15,0,0,0-1.33-3.29s-7.6,6.16-25-.71c0,0-8.06-4.64-13.18-2.28h0A22.28,22.28,0,0,0,225.2,231.71Z" fill="#0071f2"/><path d="M225.2,231.71a22.35,22.35,0,1,0,42.65-13.37,21.15,21.15,0,0,0-1.33-3.29s-7.6,6.16-25-.71c0,0-8.06-4.64-13.18-2.28h0A22.28,22.28,0,0,0,225.2,231.71Z" fill="#fff" opacity="0.2"/><path d="M266.52,215.05s-2.72-8-10.9-4.86c0,0-9.53,3.85-14.1,4.15C241.52,214.34,256.86,221.3,266.52,215.05Z" fill="#0071f2"/><path d="M282.61,309.15A23.73,23.73,0,0,0,327.9,295a22.73,22.73,0,0,0-1.41-3.49A23.7,23.7,0,0,0,311,279V245.8h.31a2,2,0,0,0,2-2v-1.62a2,2,0,0,0-2-2h-13.9a2,2,0,0,0-2,2v1.63a2,2,0,0,0,2,2h.39v33.76a23.68,23.68,0,0,0-11.8,8.72h0A23.65,23.65,0,0,0,282.61,309.15Z" fill="#e6e7e8"/><path d="M282.61,309.15A23.73,23.73,0,0,0,327.9,295a22.73,22.73,0,0,0-1.41-3.49s-8.08,6.54-26.55-.75c0,0-8.55-4.93-14-2.43h0A23.65,23.65,0,0,0,282.61,309.15Z" fill="#0071f2"/><path d="M282.61,309.15A23.73,23.73,0,0,0,327.9,295a22.73,22.73,0,0,0-1.41-3.49s-8.08,6.54-26.55-.75c0,0-8.55-4.93-14-2.43h0A23.65,23.65,0,0,0,282.61,309.15Z" fill="#fff" opacity="0.2"/><path d="M326.49,291.47s-2.9-8.54-11.58-5.16c0,0-10.11,4.08-15,4.41C299.94,290.72,316.23,298.1,326.49,291.47Z" fill="#0071f2"/><path d="M383.24,112.65a22.16,22.16,0,0,0-.83-7.47,14.19,14.19,0,0,0-1.09-2.54c-1-1.94-3.12-7.68.73-18.17l9.35,29.88a25.89,25.89,0,0,0-3.17,2.33A40.52,40.52,0,0,1,383.24,112.65Z" fill="#f9b499"/><path d="M382.05,78.89a42.21,42.21,0,0,0,.19-7.5.67.67,0,0,1,.89-.73c1.44.56,3.93,2.11,5.05,6.3Z" fill="#f9b499"/><path d="M204.35,161.34s3.37,22.58,2.76,34.35a9,9,0,0,1-4.4,7.3c-8,4.74-26.94,16.93-32.08,28.66l.14,8.75s8.27-10.53,14.65-14.83c0,0-4,7.41-2.37,14.83,0,0,13.65-25.5,33.23-41.16,0,0,2.92-6.06-3.11-5.16C213.17,194.08,210.67,165.82,204.35,161.34Z" fill="#fff" opacity="0.7"/><path d="M195.16,267.77l-1.45,28.14s25.69-15.55,34.82-57.64a18.87,18.87,0,0,1-3.09-5.84S204.89,263.08,195.16,267.77Z" fill="#fff" opacity="0.7"/><path d="M194.62,276l25.06,2.86L214,314s-2.17,13.09-21.86,12.28Z" fill="#0071f2"/><path d="M194.62,276l25.06,2.86L214,314s-2.17,13.09-21.86,12.28Z" fill="#fff" opacity="0.4"/><rect x="255.77" y="259.81" width="71.96" height="6.31" fill="#bcbec0"/><rect x="206.55" y="301.85" width="129.94" height="6.31" transform="translate(576.52 33.49) rotate(90)" fill="#bcbec0"/><circle cx="271.98" cy="263.81" r="6.58" fill="#d1d3d4"/><circle cx="271.98" cy="263.78" r="2.34" fill="#e6e7e8"/><rect x="261.14" y="362.38" width="83.41" height="10.28" fill="#bcbec0"/><rect x="261.14" y="365.41" width="83.41" height="2.1" fill="#d1d3d4"/><polygon points="321.66 362.38 286.38 362.38 286.38 357.59 290.53 352.8 317.5 352.8 321.66 357.59 321.66 362.38" fill="#bcbec0"/><rect x="290.18" y="346.65" width="27.32" height="6.15" fill="#d1d3d4"/><path d="M304,346.65a4.89,4.89,0,0,1-4.35-6.07,8.92,8.92,0,0,1,1.33-3.35c1-1.66,2.84-4.88,3-7.5a47,47,0,0,0,3.43,7,9.26,9.26,0,0,1,1.53,3.08C309.69,342.55,309.79,346.65,304,346.65Z" fill="#e6e7e8"/><polygon points="334.95 571.51 294.67 568.42 274.31 399.07 276.53 587.62 335.92 587.62 334.95 571.51" opacity="0.2"/><polygon points="188.5 562.83 187.77 579.66 247.73 585.5 251.13 560.32 188.5 562.83" opacity="0.2"/><rect x="274.31" y="587.62" width="64.14" height="22.37" fill="#2f2e41"/><rect x="185.01" y="582.29" width="64.14" height="22.37" transform="translate(58.66 -18.28) rotate(5.57)" fill="#2f2e41"/><polygon points="180.03 643.28 180.03 633.8 299.64 639.93 299.64 646.35 180.03 643.28" fill="#2f2e41"/><rect x="365.44" y="278.88" width="5.14" height="86.53" fill="#d1d3d4"/><rect x="460.14" y="278.88" width="5.14" height="86.53" fill="#d1d3d4"/><path d="M398.5,282.85a2.68,2.68,0,0,0-2.68-2.68H382.18a2.67,2.67,0,0,0-.16,5.33v62.18a7,7,0,1,0,14,0V285.5A2.66,2.66,0,0,0,398.5,282.85Z" fill="#e6e7e8"/><path d="M396,309.63v38.05a7,7,0,1,1-14,0v-41a14.6,14.6,0,0,1,7,2.3A10.1,10.1,0,0,0,396,309.63Z" fill="#0071f2"/><path d="M424.86,282.85a2.68,2.68,0,0,0-2.68-2.68H408.54a2.67,2.67,0,0,0-.16,5.33v62.18a7,7,0,1,0,13.95,0V285.5A2.66,2.66,0,0,0,424.86,282.85Z" fill="#e6e7e8"/><path d="M422.33,309.63v38.05a7,7,0,1,1-13.95,0v-41a14.6,14.6,0,0,1,7,2.3A10.12,10.12,0,0,0,422.33,309.63Z" fill="#0071f2"/><path d="M422.33,309.63v38.05a7,7,0,1,1-13.95,0v-41a14.6,14.6,0,0,1,7,2.3A10.12,10.12,0,0,0,422.33,309.63Z" fill="#fff" opacity="0.4"/><path d="M451.55,282.85a2.68,2.68,0,0,0-2.67-2.68H435.23a2.67,2.67,0,0,0-.15,5.33v62.18a7,7,0,1,0,13.94,0V285.5A2.66,2.66,0,0,0,451.55,282.85Z" fill="#e6e7e8"/><path d="M449,309.63v38.05a7,7,0,1,1-13.94,0v-41a14.63,14.63,0,0,1,7,2.3A10.08,10.08,0,0,0,449,309.63Z" fill="#0071f2"/><path d="M558.56,126.28,561.27,139s-16,17.63-1.35,23.05c0,0,16,2.71,22-3.52l6.24-22s-9.76-15.46-8.81-28.75l-9.9-3.52Z" fill="#f9b499"/><path d="M588.12,136.59s46.22-2.44,48.33,32.27c0,0,.48,23.32-11.72,57.22l-8.68,23s17.36,42.31,16,91.66c0,0-46.91,19.51-62.91-22,0,0-4.34-13.92-4.07-36l2.17-52.16,4.41-33.58A141,141,0,0,1,578,170l3.89-11.43Z" fill="#0071f2"/><path d="M588.12,136.59s46.22-2.44,48.33,32.27c0,0,.48,23.32-11.72,57.22l-8.68,23s17.36,42.31,16,91.66c0,0-46.91,19.51-62.91-22,0,0-4.34-13.92-4.07-36l2.17-52.16,4.41-33.58A141,141,0,0,1,578,170l3.89-11.43Z" fill="#fff" opacity="0.7"/><path d="M572.17,193.55,607.1,138.5s-15.18-2.72-19-1.91L574.24,183Z" fill="#0071f2"/><path d="M572.17,193.55,607.1,138.5s-15.18-2.72-19-1.91L574.24,183Z" fill="#fff" opacity="0.4"/><path d="M571.29,199.89l.36-2.78,18,1.39s4.57-15,12.11-19.2A136.18,136.18,0,0,0,594.36,212Z" fill="#fff" opacity="0.7"/><path d="M547.47,196.75l-2,73.38-1.36,24.1c-7.59,72-61.39,56.16-61.39,56.16,16.05-15.81,22.67-79.25,22.67-79.25l13-65.35-23.7,9.56c-8.75,3.26-14.4,2.18-18-.2l-.07-.05a15.39,15.39,0,0,1-6.1-9.31L449.37,145l27.27-13.75,4.07,7.89,16.56,32.1,8.67-8.6a97.37,97.37,0,0,1,13.42-13.72v0c11.32-9.25,17.91-8.47,17.91-8.47l6.11,7.64Z" fill="#0071f2"/><path d="M547.47,196.75l-2,73.38-1.36,24.1c-7.59,72-61.39,56.16-61.39,56.16,16.05-15.81,22.67-79.25,22.67-79.25l13-65.35-23.7,9.56c-8.75,3.26-14.4,2.18-18-.2l-.07-.05a15.39,15.39,0,0,1-6.1-9.31L449.37,145l27.27-13.75,4.07,7.89,16.56,32.1,8.67-8.6a97.37,97.37,0,0,1,13.42-13.72v0c11.32-9.25,17.91-8.47,17.91-8.47l6.11,7.64Z" fill="#fff" opacity="0.7"/><path d="M506.19,168.59l2,14.9-7.65-6.37-8.4,12V173.81l-11.47-34.65,16.56,32.1,8.67-8.6a97.37,97.37,0,0,1,13.42-13.72Z" fill="#fff" opacity="0.7"/><path d="M522.24,159.8h10.7a0,0,0,0,1,0,0v45.78a3.86,3.86,0,0,1-3.86,3.86h-3a3.86,3.86,0,0,1-3.86-3.86V159.8A0,0,0,0,1,522.24,159.8Z" fill="#e6e7e8"/><path d="M522.24,188.89h10.7a0,0,0,0,1,0,0v16.7a3.86,3.86,0,0,1-3.86,3.86h-3a3.86,3.86,0,0,1-3.86-3.86v-16.7A0,0,0,0,1,522.24,188.89Z" fill="#0071f2"/><rect x="520.1" y="155.78" width="14.99" height="5.3" fill="#e6e7e8"/><path d="M519.29,200.49l-.87,5.3-23.7,9.56c-8.75,3.26-14.4,2.18-18-.2l-.07-.05s16.95-5,38.29-22.62a23.56,23.56,0,0,0,2.23,4.27A11,11,0,0,0,519.29,200.49Z" fill="#fff" opacity="0.7"/><path d="M558.56,126.28,560.4,135s6.89-.51,10.09-15.91Z" fill="#f7a48b"/><path d="M555.91,457.34a1.09,1.09,0,0,0,0-.25,1.83,1.83,0,0,1,0,.26Z" fill="none" stroke="#ed1c24" stroke-miterlimit="10" stroke-width="0.25"/><path d="M617,493.35l8.42,108.13s-50.19,34-91.4,0v0s64.21,25.9,76.69-35.23V479l-14.22,7.12,8.11-19-15.87-3,22-12.47,7.77-107.24,7-1.5S614.31,451.62,617,493.35Z" fill="#fff" opacity="0.2"/><path d="M528.68,560.9A18.68,18.68,0,0,1,520.25,578l11.45-2.27,3.72-13.16S530.75,563.62,528.68,560.9Z" fill="#f9b499"/><path d="M520.25,578a100.67,100.67,0,0,1-34.65,13.92s-8.35,2.47,0,8c0,0,19.82,18.63,42.24-4.14l-1.42-1.48,5.28-18.61Z" fill="#0071f2"/><path d="M549.61,270.34l2,66.21s-5.87-2.26-8-14.4v-21.8s1.08-15.65,1.29-19.39l.61-10.83Z" fill="#fff" opacity="0.2"/><path d="M454.6,142.38l.83-8.94a6.36,6.36,0,0,0-1.83-5.06c-5.1-5.16-17.38-18.75-12.47-25.66,0,0,3-9.15,10.14-10.26l14.37-.6s3.59,3.08-4.44,3.71c0,0-2.75,1.23-1.69,2.41,0,0,6.33.9,7.77,5a2.62,2.62,0,0,1-1.15,3.12c-1.62.94-3.83,2.69-2,4.41,0,0,10.14,5.94,9.09,12.91l-2,10.54Z" fill="#f9b499"/><polygon points="219.45 653.43 229.42 653.43 290.18 382.61 259.57 382.61 219.45 653.43" fill="#d1d3d4"/><polygon points="683.63 653.43 694.78 653.43 653.15 382.61 621.75 382.61 683.63 653.43" fill="#d1d3d4"/><path d="M252.75,428.64s14.19-11.79,30.38-14.6l7.05-31.43H259.57Z" opacity="0.2"/><path d="M629.68,417.3l-7.93-34.69h31.4l7.43,48.32S646.44,414.2,629.68,417.3Z" opacity="0.2"/><ellipse cx="274.71" cy="83.31" rx="23.82" ry="32.89" fill="#f9b499"/><path d="M300,63.24l6.53-.59s-.37,9.5-8.35,14.84l-.74-4.19s-12-.57-18.51-7.09c0,0-.88,3.86,4.16,5.94,0,0-7.81,3.52-14.34-3.87A4.41,4.41,0,0,0,264,66.93c-1.86.63-4,2.16-5.17,5.69a13.86,13.86,0,0,0-.59,4.25c0,3.48-.39,12.26-4.24,12.89l-17.91-2.64s-22-37.23,10.4-36.7c0,0,3.59-23.1,24.91-12.7L286,46.32S296.41,54,308.28,52C308.28,52,304.83,60.14,300,63.24Z" fill="#2f2e41"/><path d="M306.5,62.65s-.37,9.5-8.35,14.84l-.74-4.19s-12-.57-18.51-7.09c0,0-.88,3.86,4.16,5.94,0,0-7.81,3.52-14.34-3.87A4.41,4.41,0,0,0,264,66.93c-1.86.63-4,2.16-5.17,5.69a13.86,13.86,0,0,0-.59,4.25c0,3.48-.39,12.26-4.24,12.89l-17.91-2.64s-4.55-15.72,5.09-22.7c0,0,0-.89-3.85,0,0,0,0-12.75,16.67-6.81,0,0-2-10.85,9.58-12.18,0,0-6.42,4.31-4.4,10.24,0,0,8-6.68,17.2,2.38,0,0,10.21,6.23,16.88,2.08,0,0-.88,5.33-9.94,3.71C283.35,63.84,293.29,79.56,306.5,62.65Z" opacity="0.2"/><circle cx="243.99" cy="93.35" r="10.04" fill="#f9b499"/><path d="M254.35,205.44a158.51,158.51,0,0,0-22,12.22c-10.67-2.19-15.69-19.41-15.69-19.41s6.1-6.75,9.16-14.39a10.41,10.41,0,0,1,6.31-7.21,12.62,12.62,0,0,1,5.65-.6,1.28,1.28,0,0,1,1.15,1.36c-.15,1.83.21,5.13,5,4.49,0,0,6.05-3.71,10-2.27h0a4.28,4.28,0,0,1,1.94,1.39s2.39,2.41,0,6.32c0,0-1.31,3.05-.23,5.45C255.65,192.8,261.35,202.45,254.35,205.44Z" fill="#f9b499"/><path d="M243.88,181.9c-11.33,6.55-11.77-5.25-11.77-5.25a12.44,12.44,0,0,1,5.65-.6,1.28,1.28,0,0,1,1.15,1.35C238.75,179.24,239.12,182.53,243.88,181.9Z" fill="#f7a48b"/><path d="M254.35,205.44c1.57-6.49-.62-10-.62-10-4.83-2.62-.8-8.11-.8-8.11a7.71,7.71,0,0,0,1-7.69,4.28,4.28,0,0,1,1.94,1.39s2.39,2.41,0,6.32c0,0-1.31,3.05-.23,5.45C255.65,192.8,261.35,202.45,254.35,205.44Z" fill="#f7a48b"/><path d="M216.64,198.25s6.25,18.12,17.94,19.9c0,0-24.05,40.19-39.42,49.62,0,0-15.14,10.79-21.93-11.4" fill="#0071f2"/><path d="M216.64,198.25s6.25,18.12,17.94,19.9c0,0-24.05,40.19-39.42,49.62,0,0-15.14,10.79-21.93-11.4" fill="#fff" opacity="0.7"/><path d="M391.4,93.67l-.16,0a4,4,0,0,1-.92-7.11l9.12-6a3.55,3.55,0,0,1,3.66-.23c1.19.68,2.19,2.2,1.48,5.59,0,0,6.75-1,6.58,6.62,0,0,6.79,4.87,3.31,10.26,0,0,6.45,5.31-.66,11.17L405,116a4.35,4.35,0,0,1-4.86-2.18c-.94-1.79-1.55-4.06.1-5.7,0,0-6.31-2.36-4-7.54C396.19,100.58,392,101.15,391.4,93.67Z" fill="#f9b499"/><path d="M414.47,102.72a42.24,42.24,0,0,1-14.27,5.4,37.14,37.14,0,0,1,6.89-3.35A38,38,0,0,1,414.47,102.72Z" fill="#f7a48b"/><path d="M396.19,100.58a46,46,0,0,1,7.16-4.67,45.52,45.52,0,0,1,7.81-3.45,52.44,52.44,0,0,1-15,8.12Z" fill="#f7a48b"/><path d="M391.4,93.67a42.9,42.9,0,0,1,13.18-7.83,42.9,42.9,0,0,1-13.18,7.83Z" fill="#f7a48b"/><rect x="216.99" y="372.66" width="481.18" height="15.65" rx="5.65" fill="#d1d3d4"/><rect x="362.87" y="362.38" width="106.69" height="10.28" fill="#bcbec0"/><rect x="375.94" y="287.89" width="78.84" height="8.33" fill="#d1d3d4"/><path d="M610.66,165c-14.08,14-16.3,47-16.3,47L555,191.37l-6.23,29,48,30.64s9.22,7.59,19.25-1.9" fill="#0071f2"/><path d="M610.66,165c-14.08,14-16.3,47-16.3,47L555,191.37l-6.23,29,48,30.64s9.22,7.59,19.25-1.9" fill="#fff" opacity="0.7"/><path d="M537.28,140.44h16.46s-8.57,11-6.27,56.31C547.47,196.75,538.81,181.72,537.28,140.44Z" fill="#0071f2"/><path d="M537.28,140.44h16.46s-8.57,11-6.27,56.31C547.47,196.75,538.81,181.72,537.28,140.44Z" fill="#fff" opacity="0.4"/><path d="M554.56,193.55l-4.22,19.68-14.85-9.86s-5.78,1.6-11,.16h0a10.12,10.12,0,0,1-7.3-6.77s-6.62-8.41,0-15.29c0,0-5.59-8.41-1.52-9.42l2.49.68,11.53,3.13-.17-.14c-.86-.78-4.79-4.6-3.27-8.93a1.61,1.61,0,0,1,2.9-.33,25.18,25.18,0,0,0,1.38,2.14v0c1.77,2.53,4.25,5.2,6.8,5.2,0,0,5.5.27,8.23,10.2A43.68,43.68,0,0,0,554.56,193.55Z" fill="#f9b499"/><path d="M536,177.64a14.39,14.39,0,0,1-6.37-1.79l-.17-.14c-.86-.78-4.79-4.6-3.27-8.93a1.61,1.61,0,0,1,2.9-.33,25.18,25.18,0,0,0,1.38,2.14v0C529.3,174.84,536,177.64,536,177.64Z" fill="#f7a48b"/><polygon points="554.56 193.55 551.34 190.83 544.65 209.45 550.34 213.23 554.56 193.55" fill="#f7a48b"/><path d="M524.44,203.52a10.12,10.12,0,0,1-7.3-6.77s-6.62-8.41,0-15.29c0,0-5.59-8.41-1.52-9.42l2.49.68s-1.89,3.39,1.25,9.25c0,0-7.84,7.74,3.14,14.78C522.5,196.75,520.88,201.87,524.44,203.52Z" fill="#f7a48b"/><ellipse cx="552.9" cy="98.96" rx="31.3" ry="23.59" transform="translate(422.06 645.2) rotate(-86.68)" fill="#f9b499"/><path d="M639.53,132s0,0,0,0a.35.35,0,0,0,0,.08,26.74,26.74,0,0,1-4.74,5.17c-.35.3-.69.57-1,.83l-.77.54c-.21.14-.4.28-.61.4l-.09.06c-.31.19-.65.38-1,.56a13.18,13.18,0,0,1-10.41,1.14l-.07,0c-3.23-1-6.73-3.42-10.38-8,0,0-13.73,6.87-14.73-5,0,0-5.14-9.2,4.94-21.46a8.83,8.83,0,0,0,2-6.75,7.4,7.4,0,0,0-1.27-3.45,3.5,3.5,0,0,0-6,.68,34.15,34.15,0,0,1-3.73,6.39,18.3,18.3,0,0,1-2.59,2.87.52.52,0,0,1-.11.1,10.34,10.34,0,0,1-3.87,2.21l-.48.13L573.92,91.86c-5.62-1.2-3.15-6.31-3-6.62-2.89,3-5.29,4.32-7.23,4.75-4.87,1.09-6.92-3.6-6.92-3.6-6.36-12.73-10.39-7.54-10.39-7.54-3.52,4.86-5.36,1.51-5.36,1.51-3-3.52-4.68,1.18-4.68,1.18s-1.68,11.15-7.11,15.86c-2.45,2.14-5.66,3-9.81.88,0,0-8.55-4.18-4.2-24.29a10.92,10.92,0,0,1,2.22-3.45h0c2.27-2.47,6.57-5.08,14.2-3.41,0,0,3.52,1.14,6.94-5.52A24.55,24.55,0,0,1,542,56.54c5.14-5.77,17.74-16.55,31.26-3a3.81,3.81,0,0,0,5.65-.19c5.37-6.4,18.39-18,34.86-5.31a22.09,22.09,0,0,1,4.7,21.68,23.93,23.93,0,0,1-1.19,3.13s-5.36,11.92,6.21,16.84c0,0,10,4.76,9,12.81a19.32,19.32,0,0,1-5,13.38,7.83,7.83,0,0,0-2.09,4.54C625,125,626.15,132.92,639.53,132Z" fill="#2f2e41"/><path d="M639.53,132s0,0,0,0a.35.35,0,0,0,0,.08,30.54,30.54,0,0,1-4.74,5.17c-.35.3-.69.57-1,.83l-.77.54c-.21.14-.4.28-.61.4l-.09.06c-.31.19-.65.38-1,.56-5.58,3.05-9.83,1.39-10.41,1.14l-.07,0c-8.74-3.79-6.69-15.81-6.69-15.81-7.87-4.37,7.2-20.61,7.2-20.61,4-10.55-5.53-11.56-5.53-11.56-12.89,1.84-9.87-11.9-9.87-11.9C608.2,60.77,585.09,67,585.09,67c9.54,4.36,10,18.76,10,18.76.65,8.68-1.21,14.1-3.53,17.46a14.21,14.21,0,0,1-2.59,2.87.52.52,0,0,1-.11.1,12.36,12.36,0,0,1-3.87,2.21l-.48.13c5.49-5.51,3.69-14,1.92-19a4.43,4.43,0,0,0-5.12-2.82C571.56,88.73,566,76.51,566,76.51,560,67.29,553.75,69,553.75,69c-10.58.85-12.22,8.55-12.22,8.55-5-8-8.71-.33-8.71-.33-4.69,8.87-7.71,2.17-7.71,2.17a9.77,9.77,0,0,0-7.67-8.81h0c2.27-2.47,6.57-5.08,14.2-3.41,0,0,3.52,1.14,6.94-5.52A24.55,24.55,0,0,1,542,56.54c5.14-5.77,17.74-16.55,31.26-3a3.81,3.81,0,0,0,5.65-.19c32.88-18.17,39.56,16.37,39.56,16.37a23.93,23.93,0,0,1-1.19,3.13s-5.36,11.92,6.21,16.84c0,0,10,4.76,9,12.81a19.32,19.32,0,0,1-5,13.38,7.83,7.83,0,0,0-2.09,4.54C625,125,626.15,132.92,639.53,132Z" opacity="0.2"/><path d="M563.69,90c-7.69,6.3-12.45-2.76-12.45-2.76-3.35-8.38-5.73-5.19-5.73-5.19-1.37,2.17-3,1.34-3,1.34-3-1-3.85,1.16-3.85,1.16-1.09,9.31-9.32,13-9.32,13a2.14,2.14,0,0,1-.13-.19c5.43-4.71,7.11-15.86,7.11-15.86s1.67-4.7,4.68-1.18c0,0,1.84,3.35,5.36-1.51,0,0,4-5.19,10.39,7.54C556.77,86.39,558.82,91.08,563.69,90Z" fill="#f7a48b"/><ellipse cx="579.31" cy="100.11" rx="8.81" ry="10.44" fill="#f9b499"/><path d="M663.14,372.65H545.94a17.89,17.89,0,0,1,5.27-12.71,16.93,16.93,0,0,1,1.68-1.48,17.88,17.88,0,0,1,11-3.8h81.22a18,18,0,0,1,18,18Z" fill="#0071f2"/><path d="M656.19,358.46H552.89a17.88,17.88,0,0,1,11-3.8h81.22A17.86,17.86,0,0,1,656.19,358.46Z" opacity="0.2"/><path d="M661.28,218.74l-16.84,16.84-5.16-5.17-2.83-2.81,16.84-16.85a.85.85,0,0,1,1.18,0l6.81,6.81A.85.85,0,0,1,661.28,218.74Z" fill="#d1d3d4"/><path d="M661.28,218.74l-16.84,16.84-5.16-5.17L657,213.23l4.33,4.33A.85.85,0,0,1,661.28,218.74Z" fill="#bcbec0"/><path d="M584.23,280h8.88a0,0,0,0,1,0,0v9.64a.6.6,0,0,1-.6.6h-7.68a.6.6,0,0,1-.6-.6V280A0,0,0,0,1,584.23,280Z" transform="translate(374.04 -332.74) rotate(45)" fill="#d1d3d4"/><path d="M557.66,325.88v3.37a5.31,5.31,0,0,0,1.4,3.6l20.15,21.81h49.26s45.49-37.34,3.08-98.57l18.08-17.44-15.35-16.08-51.65,52L597,289.88l20.18-19.76s11.36,11,12.19,32.67a52.66,52.66,0,0,1-10.55,34.27c-6,7.8-14.61,14.12-23.88,5.58l-18.47-16.76Z" fill="#0071f2"/><path d="M571.68,325.88l26,24.63s11.63,8.89,23.26-2.4c0,0,38.31-36.94,3.42-84.49l25.27-25-53,38.65L585,272.16l-2.39,2.41L597,289.88l20.18-19.76S631.24,283,629.52,309a52.9,52.9,0,0,1-7.32,23.8c-5.7,9.51-15.59,20.46-27.26,9.88l-18.47-16.76Z" opacity="0.2"/><rect x="540.21" y="323.82" width="47.55" height="4.1" fill="#d1d3d4"/></svg>